<svg width="599" height="67" viewBox="0 0 599 67" fill="none" xmlns="http://www.w3.org/2000/svg">
<path d="M36.916 4.5H25.1484L20.1191 5.08594L17.043 8.21094L16.3105 12.3125V37.1172L17.043 41.2188L20.2168 44.2949L25.1484 44.8809H36.916L42.6289 44.1973L41.4082 38.9238L36.8184 39.7051H25.4414L22.2188 39.2168L21.5352 36.2871V12.8008L22.0234 10.1152L25.4414 9.57812H36.623L41.6523 10.4082L42.6289 5.18359L36.916 4.5ZM37.5508 0.105469C40.8385 0.105469 43.8171 0.59375 46.4863 1.57031C49.1556 2.54688 51.418 3.88151 53.2734 5.57422C55.1615 7.26693 56.61 9.2526 57.6191 11.5312C58.6283 13.7773 59.1328 16.1699 59.1328 18.709V48.3965C59.1328 50.9355 58.6283 53.3444 57.6191 55.623C56.61 57.8691 55.1615 59.8385 53.2734 61.5312C51.418 63.224 49.1556 64.5586 46.4863 65.5352C43.8171 66.5117 40.8385 67 37.5508 67H22.5117C19.224 67 16.2454 66.5117 13.5762 65.5352C10.9069 64.5586 8.62826 63.224 6.74023 61.5312C4.88477 59.8385 3.45247 57.8691 2.44336 55.623C1.43424 53.3444 0.929688 50.9355 0.929688 48.3965V18.709C0.929688 16.1699 1.43424 13.7773 2.44336 11.5312C3.45247 9.2526 4.88477 7.26693 6.74023 5.57422C8.62826 3.88151 10.9069 2.54688 13.5762 1.57031C16.2454 0.59375 19.224 0.105469 22.5117 0.105469H37.5508ZM151.369 44.832V33.6992V12.3125V8.21094L148.049 5.08594L143.166 4.5H132.033L126.32 5.18359L127.541 10.5059L132.131 9.57812H143.02L145.949 10.2129L146.633 12.8008V24.1777L143.166 23.5918H132.033L127.15 24.3242L124.025 27.4004L123.342 31.4043V37.1172L124.025 41.2188L127.15 44.2949L132.033 44.8809H142.727L146.535 44.2949L151.369 44.832ZM146.633 39.2168L142.824 39.7051H132.326L129.25 39.2168L128.566 36.2871V32.0879L128.957 29.3047L132.326 28.8164H142.922L146.633 29.207V36.5801V39.2168ZM145.363 0.105469C148.651 0.105469 151.63 0.59375 154.299 1.57031C156.968 2.54688 159.23 3.88151 161.086 5.57422C162.974 7.26693 164.423 9.2526 165.432 11.5312C166.441 13.7773 166.945 16.1699 166.945 18.709V48.3965C166.945 50.9355 166.441 53.3444 165.432 55.623C164.423 57.8691 162.974 59.8385 161.086 61.5312C159.23 63.224 156.968 64.5586 154.299 65.5352C151.63 66.5117 148.651 67 145.363 67H130.324C127.036 67 124.058 66.5117 121.389 65.5352C118.719 64.5586 116.441 63.224 114.553 61.5312C112.697 59.8385 111.265 57.8691 110.256 55.623C109.247 53.3444 108.742 50.9355 108.742 48.3965V18.709C108.742 16.1699 109.247 13.7773 110.256 11.5312C111.265 9.2526 112.697 7.26693 114.553 5.57422C116.441 3.88151 118.719 2.54688 121.389 1.57031C124.058 0.59375 127.036 0.105469 130.324 0.105469H145.363ZM253.176 0.105469C256.464 0.105469 259.442 0.59375 262.111 1.57031C264.781 2.54688 267.043 3.88151 268.898 5.57422C270.786 7.26693 272.235 9.2526 273.244 11.5312C274.253 13.7773 274.758 16.1699 274.758 18.709V48.3965C274.758 50.9355 274.253 53.3444 273.244 55.623C272.235 57.8691 270.786 59.8385 268.898 61.5312C267.043 63.224 264.781 64.5586 262.111 65.5352C259.442 66.5117 256.464 67 253.176 67H238.137C234.849 67 231.87 66.5117 229.201 65.5352C226.532 64.5586 224.253 63.224 222.365 61.5312C220.51 59.8385 219.077 57.8691 218.068 55.623C217.059 53.3444 216.555 50.9355 216.555 48.3965V18.709C216.555 16.1699 217.059 13.7773 218.068 11.5312C219.077 9.2526 220.51 7.26693 222.365 5.57422C224.253 3.88151 226.532 2.54688 229.201 1.57031C231.87 0.59375 234.849 0.105469 238.137 0.105469H253.176ZM255.666 32.8203V44.8809H260.842V32.2832L259.133 27.791L253.566 25.7891L258.938 23.2012L260.451 18.8066V13.3867L259.865 9.28516L256.643 5.18359L251.76 4.5H233.547V44.8809H238.771V28.6211H251.467L254.934 30.1836L255.666 32.8203ZM251.467 9.67578L254.934 11.1895L255.275 14.0215V19.1973L254.543 21.8828L251.467 23.3965H238.771V9.67578H251.467ZM360.988 0.105469C364.276 0.105469 367.255 0.59375 369.924 1.57031C372.593 2.54688 374.855 3.88151 376.711 5.57422C378.599 7.26693 380.048 9.2526 381.057 11.5312C382.066 13.7773 382.57 16.1699 382.57 18.709V48.3965C382.57 50.9355 382.066 53.3444 381.057 55.623C380.048 57.8691 378.599 59.8385 376.711 61.5312C374.855 63.224 372.593 64.5586 369.924 65.5352C367.255 66.5117 364.276 67 360.988 67H345.949C342.661 67 339.683 66.5117 337.014 65.5352C334.344 64.5586 332.066 63.224 330.178 61.5312C328.322 59.8385 326.89 57.8691 325.881 55.623C324.872 53.3444 324.367 50.9355 324.367 48.3965V18.709C324.367 16.1699 324.872 13.7773 325.881 11.5312C326.89 9.2526 328.322 7.26693 330.178 5.57422C332.066 3.88151 334.344 2.54688 337.014 1.57031C339.683 0.59375 342.661 0.105469 345.949 0.105469H360.988ZM367.385 12.3125L366.652 8.21094L363.576 5.08594L358.645 4.5H348.049L343.166 5.08594L340.09 8.21094L339.357 12.3125V35.5059L340.09 39.6074L343.166 42.6836L348.049 43.3184H360.354L366.066 42.5859L364.846 37.3125L360.256 38.0938H348.391L345.266 37.6055L344.582 34.6758V24.6172H367.385V12.3125ZM344.582 19.4902V12.8984L344.973 10.1152L348.391 9.57812H358.352L361.672 10.1152L362.16 12.9961V19.4902H344.582ZM468.801 0.105469C472.089 0.105469 475.067 0.59375 477.736 1.57031C480.406 2.54688 482.668 3.88151 484.523 5.57422C486.411 7.26693 487.86 9.2526 488.869 11.5312C489.878 13.7773 490.383 16.1699 490.383 18.709V48.3965C490.383 50.9355 489.878 53.3444 488.869 55.623C487.86 57.8691 486.411 59.8385 484.523 61.5312C482.668 63.224 480.406 64.5586 477.736 65.5352C475.067 66.5117 472.089 67 468.801 67H453.762C450.474 67 447.495 66.5117 444.826 65.5352C442.157 64.5586 439.878 63.224 437.99 61.5312C436.135 59.8385 434.702 57.8691 433.693 55.623C432.684 53.3444 432.18 50.9355 432.18 48.3965V18.709C432.18 16.1699 432.684 13.7773 433.693 11.5312C434.702 9.2526 436.135 7.26693 437.99 5.57422C439.878 3.88151 442.157 2.54688 444.826 1.57031C447.495 0.59375 450.474 0.105469 453.762 0.105469H468.801ZM475.197 12.3125L474.465 8.21094L471.389 5.08594L466.457 4.5H455.861L450.979 5.08594L447.902 8.21094L447.17 12.3125V35.5059L447.902 39.6074L450.979 42.6836L455.861 43.3184H468.166L473.879 42.5859L472.658 37.3125L468.068 38.0938H456.203L453.078 37.6055L452.395 34.6758V24.6172H475.197V12.3125ZM452.395 19.4902V12.8984L452.785 10.1152L456.203 9.57812H466.164L469.484 10.1152L469.973 12.9961V19.4902H452.395ZM576.613 0.105469C579.901 0.105469 582.88 0.59375 585.549 1.57031C588.218 2.54688 590.48 3.88151 592.336 5.57422C594.224 7.26693 595.673 9.2526 596.682 11.5312C597.691 13.7773 598.195 16.1699 598.195 18.709V48.3965C598.195 50.9355 597.691 53.3444 596.682 55.623C595.673 57.8691 594.224 59.8385 592.336 61.5312C590.48 63.224 588.218 64.5586 585.549 65.5352C582.88 66.5117 579.901 67 576.613 67H561.574C558.286 67 555.308 66.5117 552.639 65.5352C549.969 64.5586 547.691 63.224 545.803 61.5312C543.947 59.8385 542.515 57.8691 541.506 55.623C540.497 53.3444 539.992 50.9355 539.992 48.3965V18.709C539.992 16.1699 540.497 13.7773 541.506 11.5312C542.515 9.2526 543.947 7.26693 545.803 5.57422C547.691 3.88151 549.969 2.54688 552.639 1.57031C555.308 0.59375 558.286 0.105469 561.574 0.105469H576.613ZM579.104 32.8203V44.8809H584.279V32.2832L582.57 27.791L577.004 25.7891L582.375 23.2012L583.889 18.8066V13.3867L583.303 9.28516L580.08 5.18359L575.197 4.5H556.984V44.8809H562.209V28.6211H574.904L578.371 30.1836L579.104 32.8203ZM574.904 9.67578L578.371 11.1895L578.713 14.0215V19.1973L577.98 21.8828L574.904 23.3965H562.209V9.67578H574.904Z" fill="url(#paint0_linear)"/>
<defs>
<linearGradient id="paint0_linear" x1="291" y1="-57" x2="291" y2="108" gradientUnits="userSpaceOnUse">
<stop offset="0.822917" stop-color="#61FFB3"/>
</linearGradient>
</defs>
</svg>
