<svg width="621" height="234" viewBox="0 0 621 234" fill="none" xmlns="http://www.w3.org/2000/svg">
<path d="M48.3535 0.0371094C52.6276 0.0371094 56.4997 0.671875 59.9697 1.94141C63.4398 3.21094 66.3809 4.94596 68.793 7.14648C71.2474 9.34701 73.1305 11.9284 74.4424 14.8906C75.7542 17.8105 76.4102 20.9209 76.4102 24.2217V62.8154C76.4102 66.1162 75.7542 69.2477 74.4424 72.21C73.1305 75.1299 71.2474 77.6901 68.793 79.8906C66.3809 82.0911 63.4398 83.8262 59.9697 85.0957C56.4997 86.3652 52.6276 87 48.3535 87H28.8027C24.5286 87 20.6566 86.3652 17.1865 85.0957C13.7165 83.8262 10.7542 82.0911 8.2998 79.8906C5.8877 77.6901 4.02572 75.1299 2.71387 72.21C1.40202 69.2477 0.746094 66.1162 0.746094 62.8154V24.2217C0.746094 20.9209 1.40202 17.8105 2.71387 14.8906C4.02572 11.9284 5.8877 9.34701 8.2998 7.14648C10.7542 4.94596 13.7165 3.21094 17.1865 1.94141C20.6566 0.671875 24.5286 0.0371094 28.8027 0.0371094H48.3535ZM38.4512 6.76562L34.96 5.75H26.6445L21.3125 6.63867L17.25 10.7012V58.2451H24.042V13.0498C24.6344 12.9229 25.1634 12.8382 25.6289 12.7959C26.0944 12.7536 26.6022 12.6478 27.1523 12.4785H34.3887C34.8542 12.6478 35.2985 12.7536 35.7217 12.7959C36.1872 12.8382 36.6527 12.9229 37.1182 13.0498V39.9639H43.9102V13.0498L46.6396 12.4785H53.9395C54.4473 12.6478 54.9551 12.7536 55.4629 12.7959C55.9707 12.8382 56.4997 12.9229 57.0498 13.0498V58.2451H63.7783V10.7012L59.7793 6.63867L54.4473 5.75H46.1318L42.7041 6.76562L40.5459 11.1455L38.4512 6.76562ZM123.51 0.0371094C127.784 0.0371094 131.656 0.671875 135.126 1.94141C138.596 3.21094 141.537 4.94596 143.949 7.14648C146.404 9.34701 148.287 11.9284 149.599 14.8906C150.91 17.8105 151.566 20.9209 151.566 24.2217V62.8154C151.566 66.1162 150.91 69.2477 149.599 72.21C148.287 75.1299 146.404 77.6901 143.949 79.8906C141.537 82.0911 138.596 83.8262 135.126 85.0957C131.656 86.3652 127.784 87 123.51 87H103.959C99.6849 87 95.8128 86.3652 92.3428 85.0957C88.8727 83.8262 85.9105 82.0911 83.4561 79.8906C81.0439 77.6901 79.182 75.1299 77.8701 72.21C76.5583 69.2477 75.9023 66.1162 75.9023 62.8154V24.2217C75.9023 20.9209 76.5583 17.8105 77.8701 14.8906C79.182 11.9284 81.0439 9.34701 83.4561 7.14648C85.9105 4.94596 88.8727 3.21094 92.3428 1.94141C95.8128 0.671875 99.6849 0.0371094 103.959 0.0371094H123.51ZM131.825 15.9062L130.873 10.5742L126.874 6.51172L120.463 5.75H106.688L100.341 6.51172L96.3418 10.5742L95.3896 15.9062V46.0576L96.3418 51.3896L100.341 55.3887L106.688 56.2139H122.685L130.111 55.2617L128.524 48.4062L122.558 49.4219H107.133L103.07 48.7871L102.182 44.9785V31.9023H131.825V15.9062ZM102.182 25.2373V16.668L102.689 13.0498L107.133 12.3516H120.082L124.398 13.0498L125.033 16.7949V25.2373H102.182ZM206.029 51.5166H186.542V5.75H179.813V58.2451H206.029V51.5166ZM198.666 0.0371094C202.94 0.0371094 206.812 0.671875 210.282 1.94141C213.752 3.21094 216.693 4.94596 219.105 7.14648C221.56 9.34701 223.443 11.9284 224.755 14.8906C226.067 17.8105 226.723 20.9209 226.723 24.2217V62.8154C226.723 66.1162 226.067 69.2477 224.755 72.21C223.443 75.1299 221.56 77.6901 219.105 79.8906C216.693 82.0911 213.752 83.8262 210.282 85.0957C206.812 86.3652 202.94 87 198.666 87H179.115C174.841 87 170.969 86.3652 167.499 85.0957C164.029 83.8262 161.067 82.0911 158.612 79.8906C156.2 77.6901 154.338 75.1299 153.026 72.21C151.715 69.2477 151.059 66.1162 151.059 62.8154V24.2217C151.059 20.9209 151.715 17.8105 153.026 14.8906C154.338 11.9284 156.2 9.34701 158.612 7.14648C161.067 4.94596 164.029 3.21094 167.499 1.94141C170.969 0.671875 174.841 0.0371094 179.115 0.0371094H198.666ZM249.193 51.5166V58.2451H285.883V51.5166H270.966V12.4785H285.883V5.75H249.193V12.4785H264.174V51.5166H249.193ZM273.822 0.0371094C278.096 0.0371094 281.968 0.671875 285.438 1.94141C288.909 3.21094 291.85 4.94596 294.262 7.14648C296.716 9.34701 298.599 11.9284 299.911 14.8906C301.223 17.8105 301.879 20.9209 301.879 24.2217V62.8154C301.879 66.1162 301.223 69.2477 299.911 72.21C298.599 75.1299 296.716 77.6901 294.262 79.8906C291.85 82.0911 288.909 83.8262 285.438 85.0957C281.968 86.3652 278.096 87 273.822 87H254.271C249.997 87 246.125 86.3652 242.655 85.0957C239.185 83.8262 236.223 82.0911 233.769 79.8906C231.356 77.6901 229.494 75.1299 228.183 72.21C226.871 69.2477 226.215 66.1162 226.215 62.8154V24.2217C226.215 20.9209 226.871 17.8105 228.183 14.8906C229.494 11.9284 231.356 9.34701 233.769 7.14648C236.223 4.94596 239.185 3.21094 242.655 1.94141C246.125 0.671875 249.997 0.0371094 254.271 0.0371094H273.822ZM348.979 0.0371094C353.253 0.0371094 357.125 0.671875 360.595 1.94141C364.065 3.21094 367.006 4.94596 369.418 7.14648C371.872 9.34701 373.756 11.9284 375.067 14.8906C376.379 17.8105 377.035 20.9209 377.035 24.2217V62.8154C377.035 66.1162 376.379 69.2477 375.067 72.21C373.756 75.1299 371.872 77.6901 369.418 79.8906C367.006 82.0911 364.065 83.8262 360.595 85.0957C357.125 86.3652 353.253 87 348.979 87H329.428C325.154 87 321.282 86.3652 317.812 85.0957C314.341 83.8262 311.379 82.0911 308.925 79.8906C306.513 77.6901 304.651 75.1299 303.339 72.21C302.027 69.2477 301.371 66.1162 301.371 62.8154V24.2217C301.371 20.9209 302.027 17.8105 303.339 14.8906C304.651 11.9284 306.513 9.34701 308.925 7.14648C311.379 4.94596 314.341 3.21094 317.812 1.94141C321.282 0.671875 325.154 0.0371094 329.428 0.0371094H348.979ZM360.912 38.377L360.023 32.918L355.961 28.9189L349.359 28.2207H335.141L331.269 27.459C331.057 26.7396 330.909 26.1048 330.824 25.5547C330.74 24.9622 330.591 24.3486 330.38 23.7139V17.0488L331.269 13.3037L335.458 12.4785H351.581L357.548 13.6846L359.071 6.76562L351.708 5.75H335.014L328.666 6.63867L324.54 10.7012L323.715 16.0332V24.7295L324.54 30.0615L328.666 34.0605L335.014 34.8857H349.359L353.231 35.5205C353.358 36.1553 353.507 36.7477 353.676 37.2979C353.845 37.848 353.993 38.4193 354.12 39.0117V47.3271C354.035 47.8773 353.887 48.4697 353.676 49.1045C353.507 49.7393 353.358 50.3317 353.231 50.8818L349.105 51.5166H333.363L327.143 50.501L325.556 57.3564L332.982 58.2451H349.486L355.961 57.4834L360.023 53.4844L360.912 48.0254V38.377ZM424.135 0.0371094C428.409 0.0371094 432.281 0.671875 435.751 1.94141C439.221 3.21094 442.162 4.94596 444.574 7.14648C447.029 9.34701 448.912 11.9284 450.224 14.8906C451.535 17.8105 452.191 20.9209 452.191 24.2217V62.8154C452.191 66.1162 451.535 69.2477 450.224 72.21C448.912 75.1299 447.029 77.6901 444.574 79.8906C442.162 82.0911 439.221 83.8262 435.751 85.0957C432.281 86.3652 428.409 87 424.135 87H404.584C400.31 87 396.438 86.3652 392.968 85.0957C389.498 83.8262 386.535 82.0911 384.081 79.8906C381.669 77.6901 379.807 75.1299 378.495 72.21C377.183 69.2477 376.527 66.1162 376.527 62.8154V24.2217C376.527 20.9209 377.183 17.8105 378.495 14.8906C379.807 11.9284 381.669 9.34701 384.081 7.14648C386.535 4.94596 389.498 3.21094 392.968 1.94141C396.438 0.671875 400.31 0.0371094 404.584 0.0371094H424.135ZM436.068 38.377L435.18 32.918L431.117 28.9189L424.516 28.2207H410.297L406.425 27.459C406.213 26.7396 406.065 26.1048 405.98 25.5547C405.896 24.9622 405.748 24.3486 405.536 23.7139V17.0488L406.425 13.3037L410.614 12.4785H426.737L432.704 13.6846L434.228 6.76562L426.864 5.75H410.17L403.822 6.63867L399.696 10.7012L398.871 16.0332V24.7295L399.696 30.0615L403.822 34.0605L410.17 34.8857H424.516L428.388 35.5205C428.515 36.1553 428.663 36.7477 428.832 37.2979C429.001 37.848 429.149 38.4193 429.276 39.0117V47.3271C429.192 47.8773 429.044 48.4697 428.832 49.1045C428.663 49.7393 428.515 50.3317 428.388 50.8818L424.262 51.5166H408.52L402.299 50.501L400.712 57.3564L408.139 58.2451H424.643L431.117 57.4834L435.18 53.4844L436.068 48.0254V38.377ZM507.099 58.1816V43.709V15.9062V10.5742L502.782 6.51172L496.435 5.75H481.962L474.535 6.63867L476.122 13.5576L482.089 12.3516H496.244L500.053 13.1768L500.941 16.541V31.3311L496.435 30.5693H481.962L475.614 31.5215L471.552 35.5205L470.663 40.7256V48.1523L471.552 53.4844L475.614 57.4834L481.962 58.2451H495.863L500.814 57.4834L507.099 58.1816ZM500.941 50.8818L495.99 51.5166H482.343L478.344 50.8818L477.455 47.0732V41.6143L477.963 37.9961L482.343 37.3613H496.117L500.941 37.8691V47.4541V50.8818ZM499.291 0.0371094C503.565 0.0371094 507.437 0.671875 510.907 1.94141C514.377 3.21094 517.318 4.94596 519.73 7.14648C522.185 9.34701 524.068 11.9284 525.38 14.8906C526.692 17.8105 527.348 20.9209 527.348 24.2217V62.8154C527.348 66.1162 526.692 69.2477 525.38 72.21C524.068 75.1299 522.185 77.6901 519.73 79.8906C517.318 82.0911 514.377 83.8262 510.907 85.0957C507.437 86.3652 503.565 87 499.291 87H479.74C475.466 87 471.594 86.3652 468.124 85.0957C464.654 83.8262 461.692 82.0911 459.237 79.8906C456.825 77.6901 454.963 75.1299 453.651 72.21C452.34 69.2477 451.684 66.1162 451.684 62.8154V24.2217C451.684 20.9209 452.34 17.8105 453.651 14.8906C454.963 11.9284 456.825 9.34701 459.237 7.14648C461.692 4.94596 464.654 3.21094 468.124 1.94141C471.594 0.671875 475.466 0.0371094 479.74 0.0371094H499.291ZM48.3535 147.037C52.6276 147.037 56.4997 147.672 59.9697 148.941C63.4398 150.211 66.3809 151.946 68.793 154.146C71.2474 156.347 73.1305 158.928 74.4424 161.891C75.7542 164.811 76.4102 167.921 76.4102 171.222V209.815C76.4102 213.116 75.7542 216.248 74.4424 219.21C73.1305 222.13 71.2474 224.69 68.793 226.891C66.3809 229.091 63.4398 230.826 59.9697 232.096C56.4997 233.365 52.6276 234 48.3535 234H28.8027C24.5286 234 20.6566 233.365 17.1865 232.096C13.7165 230.826 10.7542 229.091 8.2998 226.891C5.8877 224.69 4.02572 222.13 2.71387 219.21C1.40202 216.248 0.746094 213.116 0.746094 209.815V171.222C0.746094 167.921 1.40202 164.811 2.71387 161.891C4.02572 158.928 5.8877 156.347 8.2998 154.146C10.7542 151.946 13.7165 150.211 17.1865 148.941C20.6566 147.672 24.5286 147.037 28.8027 147.037H48.3535ZM38.4512 153.766L34.96 152.75H26.6445L21.3125 153.639L17.25 157.701V205.245H24.042V160.05C24.6344 159.923 25.1634 159.838 25.6289 159.796C26.0944 159.754 26.6022 159.648 27.1523 159.479H34.3887C34.8542 159.648 35.2985 159.754 35.7217 159.796C36.1872 159.838 36.6527 159.923 37.1182 160.05V186.964H43.9102V160.05L46.6396 159.479H53.9395C54.4473 159.648 54.9551 159.754 55.4629 159.796C55.9707 159.838 56.4997 159.923 57.0498 160.05V205.245H63.7783V157.701L59.7793 153.639L54.4473 152.75H46.1318L42.7041 153.766L40.5459 158.146L38.4512 153.766ZM123.51 147.037C127.784 147.037 131.656 147.672 135.126 148.941C138.596 150.211 141.537 151.946 143.949 154.146C146.404 156.347 148.287 158.928 149.599 161.891C150.91 164.811 151.566 167.921 151.566 171.222V209.815C151.566 213.116 150.91 216.248 149.599 219.21C148.287 222.13 146.404 224.69 143.949 226.891C141.537 229.091 138.596 230.826 135.126 232.096C131.656 233.365 127.784 234 123.51 234H103.959C99.6849 234 95.8128 233.365 92.3428 232.096C88.8727 230.826 85.9105 229.091 83.4561 226.891C81.0439 224.69 79.182 222.13 77.8701 219.21C76.5583 216.248 75.9023 213.116 75.9023 209.815V171.222C75.9023 167.921 76.5583 164.811 77.8701 161.891C79.182 158.928 81.0439 156.347 83.4561 154.146C85.9105 151.946 88.8727 150.211 92.3428 148.941C95.8128 147.672 99.6849 147.037 103.959 147.037H123.51ZM136.586 163.033L135.697 157.701L131.698 153.639L125.16 152.75H108.148L101.674 153.639L97.6113 157.701L96.8496 163.033V195.025L97.6113 200.484L101.801 204.483L108.148 205.245H125.16L131.698 204.483L135.697 200.484L136.586 195.025V163.033ZM128.969 197.882L124.779 198.517H108.529L104.403 197.882L103.451 194.073V163.668L104.086 160.177L108.529 159.479H124.779L129.223 160.177L129.857 163.922V194.327L128.969 197.882ZM192.826 177.823L214.662 156.241L210.092 150.909L183.939 176.808V152.75H177.211V205.245H183.939V185.377C184.659 184.785 185.272 184.256 185.78 183.79C186.33 183.282 186.944 182.732 187.621 182.14L208.378 206.451L213.837 201.754L192.826 177.823ZM198.666 147.037C202.94 147.037 206.812 147.672 210.282 148.941C213.752 150.211 216.693 151.946 219.105 154.146C221.56 156.347 223.443 158.928 224.755 161.891C226.067 164.811 226.723 167.921 226.723 171.222V209.815C226.723 213.116 226.067 216.248 224.755 219.21C223.443 222.13 221.56 224.69 219.105 226.891C216.693 229.091 213.752 230.826 210.282 232.096C206.812 233.365 202.94 234 198.666 234H179.115C174.841 234 170.969 233.365 167.499 232.096C164.029 230.826 161.067 229.091 158.612 226.891C156.2 224.69 154.338 222.13 153.026 219.21C151.715 216.248 151.059 213.116 151.059 209.815V171.222C151.059 167.921 151.715 164.811 153.026 161.891C154.338 158.928 156.2 156.347 158.612 154.146C161.067 151.946 164.029 150.211 167.499 148.941C170.969 147.672 174.841 147.037 179.115 147.037H198.666ZM287.025 152.75H280.424V174.967H254.018V152.75H247.289V205.245H254.018V181.632H280.424V205.245H287.025V152.75ZM273.822 147.037C278.096 147.037 281.968 147.672 285.438 148.941C288.909 150.211 291.85 151.946 294.262 154.146C296.716 156.347 298.599 158.928 299.911 161.891C301.223 164.811 301.879 167.921 301.879 171.222V209.815C301.879 213.116 301.223 216.248 299.911 219.21C298.599 222.13 296.716 224.69 294.262 226.891C291.85 229.091 288.909 230.826 285.438 232.096C281.968 233.365 278.096 234 273.822 234H254.271C249.997 234 246.125 233.365 242.655 232.096C239.185 230.826 236.223 229.091 233.769 226.891C231.356 224.69 229.494 222.13 228.183 219.21C226.871 216.248 226.215 213.116 226.215 209.815V171.222C226.215 167.921 226.871 164.811 228.183 161.891C229.494 158.928 231.356 156.347 233.769 154.146C236.223 151.946 239.185 150.211 242.655 148.941C246.125 147.672 249.997 147.037 254.271 147.037H273.822ZM361.039 152.75H324.35V159.479H339.33V205.245H346.122V159.479H361.039V152.75ZM348.979 147.037C353.253 147.037 357.125 147.672 360.595 148.941C364.065 150.211 367.006 151.946 369.418 154.146C371.872 156.347 373.756 158.928 375.067 161.891C376.379 164.811 377.035 167.921 377.035 171.222V209.815C377.035 213.116 376.379 216.248 375.067 219.21C373.756 222.13 371.872 224.69 369.418 226.891C367.006 229.091 364.065 230.826 360.595 232.096C357.125 233.365 353.253 234 348.979 234H329.428C325.154 234 321.282 233.365 317.812 232.096C314.341 230.826 311.379 229.091 308.925 226.891C306.513 224.69 304.651 222.13 303.339 219.21C302.027 216.248 301.371 213.116 301.371 209.815V171.222C301.371 167.921 302.027 164.811 303.339 161.891C304.651 158.928 306.513 156.347 308.925 154.146C311.379 151.946 314.341 150.211 317.812 148.941C321.282 147.672 325.154 147.037 329.428 147.037H348.979ZM431.942 205.182V190.709V162.906V157.574L427.626 153.512L421.278 152.75H406.806L399.379 153.639L400.966 160.558L406.933 159.352H421.088L424.896 160.177L425.785 163.541V178.331L421.278 177.569H406.806L400.458 178.521L396.396 182.521L395.507 187.726V195.152L396.396 200.484L400.458 204.483L406.806 205.245H420.707L425.658 204.483L431.942 205.182ZM425.785 197.882L420.834 198.517H407.187L403.188 197.882L402.299 194.073V188.614L402.807 184.996L407.187 184.361H420.961L425.785 184.869V194.454V197.882ZM424.135 147.037C428.409 147.037 432.281 147.672 435.751 148.941C439.221 150.211 442.162 151.946 444.574 154.146C447.029 156.347 448.912 158.928 450.224 161.891C451.535 164.811 452.191 167.921 452.191 171.222V209.815C452.191 213.116 451.535 216.248 450.224 219.21C448.912 222.13 447.029 224.69 444.574 226.891C442.162 229.091 439.221 230.826 435.751 232.096C432.281 233.365 428.409 234 424.135 234H404.584C400.31 234 396.438 233.365 392.968 232.096C389.498 230.826 386.535 229.091 384.081 226.891C381.669 224.69 379.807 222.13 378.495 219.21C377.183 216.248 376.527 213.116 376.527 209.815V171.222C376.527 167.921 377.183 164.811 378.495 161.891C379.807 158.928 381.669 156.347 384.081 154.146C386.535 151.946 389.498 150.211 392.968 148.941C396.438 147.672 400.31 147.037 404.584 147.037H424.135ZM499.291 147.037C503.565 147.037 507.437 147.672 510.907 148.941C514.377 150.211 517.318 151.946 519.73 154.146C522.185 156.347 524.068 158.928 525.38 161.891C526.692 164.811 527.348 167.921 527.348 171.222V209.815C527.348 213.116 526.692 216.248 525.38 219.21C524.068 222.13 522.185 224.69 519.73 226.891C517.318 229.091 514.377 230.826 510.907 232.096C507.437 233.365 503.565 234 499.291 234H479.74C475.466 234 471.594 233.365 468.124 232.096C464.654 230.826 461.692 229.091 459.237 226.891C456.825 224.69 454.963 222.13 453.651 219.21C452.34 216.248 451.684 213.116 451.684 209.815V171.222C451.684 167.921 452.34 164.811 453.651 161.891C454.963 158.928 456.825 156.347 459.237 154.146C461.692 151.946 464.654 150.211 468.124 148.941C471.594 147.672 475.466 147.037 479.74 147.037H499.291ZM502.528 189.566V205.245H509.257V188.868L507.035 183.028L499.799 180.426L506.781 177.062L508.749 171.349V164.303L507.987 158.971L503.798 153.639L497.45 152.75H473.773V205.245H480.565V184.107H497.069L501.576 186.139L502.528 189.566ZM497.069 159.479L501.576 161.446L502.021 165.128V171.856L501.068 175.348L497.069 177.315H480.565V159.479H497.069ZM549.818 198.517V205.245H586.508V198.517H571.591V159.479H586.508V152.75H549.818V159.479H564.799V198.517H549.818ZM574.447 147.037C578.721 147.037 582.593 147.672 586.063 148.941C589.534 150.211 592.475 151.946 594.887 154.146C597.341 156.347 599.224 158.928 600.536 161.891C601.848 164.811 602.504 167.921 602.504 171.222V209.815C602.504 213.116 601.848 216.248 600.536 219.21C599.224 222.13 597.341 224.69 594.887 226.891C592.475 229.091 589.534 230.826 586.063 232.096C582.593 233.365 578.721 234 574.447 234H554.896C550.622 234 546.75 233.365 543.28 232.096C539.81 230.826 536.848 229.091 534.394 226.891C531.981 224.69 530.119 222.13 528.808 219.21C527.496 216.248 526.84 213.116 526.84 209.815V171.222C526.84 167.921 527.496 164.811 528.808 161.891C530.119 158.928 531.981 156.347 534.394 154.146C536.848 151.946 539.81 150.211 543.28 148.941C546.75 147.672 550.622 147.037 554.896 147.037H574.447Z" fill="url(#paint0_linear)"/>
<defs>
<linearGradient id="paint0_linear" x1="311" y1="34" x2="311" y2="180" gradientUnits="userSpaceOnUse">
<stop stop-color="#705EFF"/>
<stop offset="0.822917" stop-color="#61FFB3"/>
</linearGradient>
</defs>
</svg>
