<svg width="922" height="180" viewBox="0 0 922 180" fill="none" xmlns="http://www.w3.org/2000/svg">
<path d="M360.551 0.105469C363.839 0.105469 366.817 0.59375 369.486 1.57031C372.156 2.54688 374.418 3.88151 376.273 5.57422C378.161 7.26693 379.61 9.2526 380.619 11.5312C381.628 13.7773 382.133 16.1699 382.133 18.709V48.3965C382.133 50.9355 381.628 53.3444 380.619 55.623C379.61 57.8691 378.161 59.8385 376.273 61.5312C374.418 63.224 372.156 64.5586 369.486 65.5352C366.817 66.5117 363.839 67 360.551 67H345.512C342.224 67 339.245 66.5117 336.576 65.5352C333.907 64.5586 331.628 63.224 329.74 61.5312C327.885 59.8385 326.452 57.8691 325.443 55.623C324.434 53.3444 323.93 50.9355 323.93 48.3965V18.709C323.93 16.1699 324.434 13.7773 325.443 11.5312C326.452 9.2526 327.885 7.26693 329.74 5.57422C331.628 3.88151 333.907 2.54688 336.576 1.57031C339.245 0.59375 342.224 0.105469 345.512 0.105469H360.551ZM369.73 29.5977L369.047 25.3984L365.922 22.3223L360.844 21.7852H349.906L346.928 21.1992C346.765 20.6458 346.651 20.1576 346.586 19.7344C346.521 19.2786 346.407 18.8066 346.244 18.3184V13.1914L346.928 10.3105L350.15 9.67578H362.553L367.143 10.6035L368.314 5.28125L362.65 4.5H349.809L344.926 5.18359L341.752 8.30859L341.117 12.4102V19.0996L341.752 23.2012L344.926 26.2773L349.809 26.9121H360.844L363.822 27.4004C363.92 27.8887 364.034 28.3444 364.164 28.7676C364.294 29.1908 364.408 29.6302 364.506 30.0859V36.4824C364.441 36.9056 364.327 37.3613 364.164 37.8496C364.034 38.3379 363.92 38.7936 363.822 39.2168L360.648 39.7051H348.539L343.754 38.9238L342.533 44.1973L348.246 44.8809H360.941L365.922 44.2949L369.047 41.2188L369.73 37.0195V29.5977ZM463.871 23.7871L480.668 7.18555L477.152 3.08398L457.035 23.0059V4.5H451.859V44.8809H457.035V29.5977C457.589 29.1419 458.061 28.735 458.451 28.377C458.874 27.9863 459.346 27.5632 459.867 27.1074L475.834 45.8086L480.033 42.1953L463.871 23.7871ZM468.363 0.105469C471.651 0.105469 474.63 0.59375 477.299 1.57031C479.968 2.54688 482.23 3.88151 484.086 5.57422C485.974 7.26693 487.423 9.2526 488.432 11.5312C489.441 13.7773 489.945 16.1699 489.945 18.709V48.3965C489.945 50.9355 489.441 53.3444 488.432 55.623C487.423 57.8691 485.974 59.8385 484.086 61.5312C482.23 63.224 479.968 64.5586 477.299 65.5352C474.63 66.5117 471.651 67 468.363 67H453.324C450.036 67 447.058 66.5117 444.389 65.5352C441.719 64.5586 439.441 63.224 437.553 61.5312C435.697 59.8385 434.265 57.8691 433.256 55.623C432.247 53.3444 431.742 50.9355 431.742 48.3965V18.709C431.742 16.1699 432.247 13.7773 433.256 11.5312C434.265 9.2526 435.697 7.26693 437.553 5.57422C439.441 3.88151 441.719 2.54688 444.389 1.57031C447.058 0.59375 450.036 0.105469 453.324 0.105469H468.363ZM557.23 39.7051V44.8809H585.453V39.7051H573.979V9.67578H585.453V4.5H557.23V9.67578H568.754V39.7051H557.23ZM576.176 0.105469C579.464 0.105469 582.442 0.59375 585.111 1.57031C587.781 2.54688 590.043 3.88151 591.898 5.57422C593.786 7.26693 595.235 9.2526 596.244 11.5312C597.253 13.7773 597.758 16.1699 597.758 18.709V48.3965C597.758 50.9355 597.253 53.3444 596.244 55.623C595.235 57.8691 593.786 59.8385 591.898 61.5312C590.043 63.224 587.781 64.5586 585.111 65.5352C582.442 66.5117 579.464 67 576.176 67H561.137C557.849 67 554.87 66.5117 552.201 65.5352C549.532 64.5586 547.253 63.224 545.365 61.5312C543.51 59.8385 542.077 57.8691 541.068 55.623C540.059 53.3444 539.555 50.9355 539.555 48.3965V18.709C539.555 16.1699 540.059 13.7773 541.068 11.5312C542.077 9.2526 543.51 7.26693 545.365 5.57422C547.253 3.88151 549.532 2.54688 552.201 1.57031C554.87 0.59375 557.849 0.105469 561.137 0.105469H576.176ZM689.652 39.7051H674.662V4.5H669.486V44.8809H689.652V39.7051ZM683.988 0.105469C687.276 0.105469 690.255 0.59375 692.924 1.57031C695.593 2.54688 697.855 3.88151 699.711 5.57422C701.599 7.26693 703.048 9.2526 704.057 11.5312C705.066 13.7773 705.57 16.1699 705.57 18.709V48.3965C705.57 50.9355 705.066 53.3444 704.057 55.623C703.048 57.8691 701.599 59.8385 699.711 61.5312C697.855 63.224 695.593 64.5586 692.924 65.5352C690.255 66.5117 687.276 67 683.988 67H668.949C665.661 67 662.683 66.5117 660.014 65.5352C657.344 64.5586 655.066 63.224 653.178 61.5312C651.322 59.8385 649.89 57.8691 648.881 55.623C647.872 53.3444 647.367 50.9355 647.367 48.3965V18.709C647.367 16.1699 647.872 13.7773 648.881 11.5312C649.89 9.2526 651.322 7.26693 653.178 5.57422C655.066 3.88151 657.344 2.54688 660.014 1.57031C662.683 0.59375 665.661 0.105469 668.949 0.105469H683.988ZM797.465 39.7051H782.475V4.5H777.299V44.8809H797.465V39.7051ZM791.801 0.105469C795.089 0.105469 798.067 0.59375 800.736 1.57031C803.406 2.54688 805.668 3.88151 807.523 5.57422C809.411 7.26693 810.86 9.2526 811.869 11.5312C812.878 13.7773 813.383 16.1699 813.383 18.709V48.3965C813.383 50.9355 812.878 53.3444 811.869 55.623C810.86 57.8691 809.411 59.8385 807.523 61.5312C805.668 63.224 803.406 64.5586 800.736 65.5352C798.067 66.5117 795.089 67 791.801 67H776.762C773.474 67 770.495 66.5117 767.826 65.5352C765.157 64.5586 762.878 63.224 760.99 61.5312C759.135 59.8385 757.702 57.8691 756.693 55.623C755.684 53.3444 755.18 50.9355 755.18 48.3965V18.709C755.18 16.1699 755.684 13.7773 756.693 11.5312C757.702 9.2526 759.135 7.26693 760.99 5.57422C762.878 3.88151 765.157 2.54688 767.826 1.57031C770.495 0.59375 773.474 0.105469 776.762 0.105469H791.801ZM899.613 0.105469C902.901 0.105469 905.88 0.59375 908.549 1.57031C911.218 2.54688 913.48 3.88151 915.336 5.57422C917.224 7.26693 918.673 9.2526 919.682 11.5312C920.691 13.7773 921.195 16.1699 921.195 18.709V48.3965C921.195 50.9355 920.691 53.3444 919.682 55.623C918.673 57.8691 917.224 59.8385 915.336 61.5312C913.48 63.224 911.218 64.5586 908.549 65.5352C905.88 66.5117 902.901 67 899.613 67H884.574C881.286 67 878.308 66.5117 875.639 65.5352C872.969 64.5586 870.691 63.224 868.803 61.5312C866.947 59.8385 865.515 57.8691 864.506 55.623C863.497 53.3444 862.992 50.9355 862.992 48.3965V18.709C862.992 16.1699 863.497 13.7773 864.506 11.5312C865.515 9.2526 866.947 7.26693 868.803 5.57422C870.691 3.88151 872.969 2.54688 875.639 1.57031C878.308 0.59375 881.286 0.105469 884.574 0.105469H899.613ZM908.793 29.5977L908.109 25.3984L904.984 22.3223L899.906 21.7852H888.969L885.99 21.1992C885.827 20.6458 885.714 20.1576 885.648 19.7344C885.583 19.2786 885.469 18.8066 885.307 18.3184V13.1914L885.99 10.3105L889.213 9.67578H901.615L906.205 10.6035L907.377 5.28125L901.713 4.5H888.871L883.988 5.18359L880.814 8.30859L880.18 12.4102V19.0996L880.814 23.2012L883.988 26.2773L888.871 26.9121H899.906L902.885 27.4004C902.982 27.8887 903.096 28.3444 903.227 28.7676C903.357 29.1908 903.471 29.6302 903.568 30.0859V36.4824C903.503 36.9056 903.389 37.3613 903.227 37.8496C903.096 38.3379 902.982 38.7936 902.885 39.2168L899.711 39.7051H887.602L882.816 38.9238L881.596 44.1973L887.309 44.8809H900.004L904.984 44.2949L908.109 41.2188L908.793 37.0195V29.5977ZM44.877 152.705H25.3945V140.303H41.7031V135.176H25.3945V122.676H44.1934V117.5H20.3164V157.881H44.877V152.705ZM37.1133 113.105C40.401 113.105 43.3796 113.594 46.0488 114.57C48.7181 115.547 50.9805 116.882 52.8359 118.574C54.724 120.267 56.1725 122.253 57.1816 124.531C58.1908 126.777 58.6953 129.17 58.6953 131.709V161.396C58.6953 163.936 58.1908 166.344 57.1816 168.623C56.1725 170.869 54.724 172.839 52.8359 174.531C50.9805 176.224 48.7181 177.559 46.0488 178.535C43.3796 179.512 40.401 180 37.1133 180H22.0742C18.7865 180 15.8079 179.512 13.1387 178.535C10.4694 177.559 8.19076 176.224 6.30273 174.531C4.44727 172.839 3.01497 170.869 2.00586 168.623C0.996745 166.344 0.492188 163.936 0.492188 161.396V131.709C0.492188 129.17 0.996745 126.777 2.00586 124.531C3.01497 122.253 4.44727 120.267 6.30273 118.574C8.19076 116.882 10.4694 115.547 13.1387 114.57C15.8079 113.594 18.7865 113.105 22.0742 113.105H37.1133ZM144.926 113.105C148.214 113.105 151.192 113.594 153.861 114.57C156.531 115.547 158.793 116.882 160.648 118.574C162.536 120.267 163.985 122.253 164.994 124.531C166.003 126.777 166.508 129.17 166.508 131.709V161.396C166.508 163.936 166.003 166.344 164.994 168.623C163.985 170.869 162.536 172.839 160.648 174.531C158.793 176.224 156.531 177.559 153.861 178.535C151.192 179.512 148.214 180 144.926 180H129.887C126.599 180 123.62 179.512 120.951 178.535C118.282 177.559 116.003 176.224 114.115 174.531C112.26 172.839 110.827 170.869 109.818 168.623C108.809 166.344 108.305 163.936 108.305 161.396V131.709C108.305 129.17 108.809 126.777 109.818 124.531C110.827 122.253 112.26 120.267 114.115 118.574C116.003 116.882 118.282 115.547 120.951 114.57C123.62 113.594 126.599 113.105 129.887 113.105H144.926ZM155.082 125.41L154.398 121.309L151.322 118.184L146.293 117.5H124.516V157.881H146.293L151.322 157.295L154.398 154.219L155.082 150.02V125.41ZM149.223 152.217L146 152.705H129.594V122.676H146L149.418 123.213L149.906 126.094V149.482L149.223 152.217ZM252.738 113.105C256.026 113.105 259.005 113.594 261.674 114.57C264.343 115.547 266.605 116.882 268.461 118.574C270.349 120.267 271.798 122.253 272.807 124.531C273.816 126.777 274.32 129.17 274.32 131.709V161.396C274.32 163.936 273.816 166.344 272.807 168.623C271.798 170.869 270.349 172.839 268.461 174.531C266.605 176.224 264.343 177.559 261.674 178.535C259.005 179.512 256.026 180 252.738 180H237.699C234.411 180 231.433 179.512 228.764 178.535C226.094 177.559 223.816 176.224 221.928 174.531C220.072 172.839 218.64 170.869 217.631 168.623C216.622 166.344 216.117 163.936 216.117 161.396V131.709C216.117 129.17 216.622 126.777 217.631 124.531C218.64 122.253 220.072 120.267 221.928 118.574C223.816 116.882 226.094 115.547 228.764 114.57C231.433 113.594 234.411 113.105 237.699 113.105H252.738ZM262.504 117.5H257.328V149.482C257.263 149.906 257.149 150.361 256.986 150.85C256.856 151.338 256.726 151.794 256.596 152.217L253.422 152.705H240.922L237.699 152.217L237.016 149.287V117.5H231.938V150.02L232.523 154.219L235.697 157.295L240.629 157.881H253.715L258.695 157.295L261.82 154.219L262.504 150.02V117.5ZM359.916 117.5H348.148L343.119 118.086L340.043 121.211L339.311 125.312V150.117L340.043 154.219L343.217 157.295L348.148 157.881H359.916L365.629 157.197L364.408 151.924L359.818 152.705H348.441L345.219 152.217L344.535 149.287V125.801L345.023 123.115L348.441 122.578H359.623L364.652 123.408L365.629 118.184L359.916 117.5ZM360.551 113.105C363.839 113.105 366.817 113.594 369.486 114.57C372.156 115.547 374.418 116.882 376.273 118.574C378.161 120.267 379.61 122.253 380.619 124.531C381.628 126.777 382.133 129.17 382.133 131.709V161.396C382.133 163.936 381.628 166.344 380.619 168.623C379.61 170.869 378.161 172.839 376.273 174.531C374.418 176.224 372.156 177.559 369.486 178.535C366.817 179.512 363.839 180 360.551 180H345.512C342.224 180 339.245 179.512 336.576 178.535C333.907 177.559 331.628 176.224 329.74 174.531C327.885 172.839 326.452 170.869 325.443 168.623C324.434 166.344 323.93 163.936 323.93 161.396V131.709C323.93 129.17 324.434 126.777 325.443 124.531C326.452 122.253 327.885 120.267 329.74 118.574C331.628 116.882 333.907 115.547 336.576 114.57C339.245 113.594 342.224 113.105 345.512 113.105H360.551ZM474.369 157.832V146.699V125.312V121.211L471.049 118.086L466.166 117.5H455.033L449.32 118.184L450.541 123.506L455.131 122.578H466.02L468.949 123.213L469.633 125.801V137.178L466.166 136.592H455.033L450.15 137.324L447.025 140.4L446.342 144.404V150.117L447.025 154.219L450.15 157.295L455.033 157.881H465.727L469.535 157.295L474.369 157.832ZM469.633 152.217L465.824 152.705H455.326L452.25 152.217L451.566 149.287V145.088L451.957 142.305L455.326 141.816H465.922L469.633 142.207V149.58V152.217ZM468.363 113.105C471.651 113.105 474.63 113.594 477.299 114.57C479.968 115.547 482.23 116.882 484.086 118.574C485.974 120.267 487.423 122.253 488.432 124.531C489.441 126.777 489.945 129.17 489.945 131.709V161.396C489.945 163.936 489.441 166.344 488.432 168.623C487.423 170.869 485.974 172.839 484.086 174.531C482.23 176.224 479.968 177.559 477.299 178.535C474.63 179.512 471.651 180 468.363 180H453.324C450.036 180 447.058 179.512 444.389 178.535C441.719 177.559 439.441 176.224 437.553 174.531C435.697 172.839 434.265 170.869 433.256 168.623C432.247 166.344 431.742 163.936 431.742 161.396V131.709C431.742 129.17 432.247 126.777 433.256 124.531C434.265 122.253 435.697 120.267 437.553 118.574C439.441 116.882 441.719 115.547 444.389 114.57C447.058 113.594 450.036 113.105 453.324 113.105H468.363ZM585.453 117.5H557.23V122.676H568.754V157.881H573.979V122.676H585.453V117.5ZM576.176 113.105C579.464 113.105 582.442 113.594 585.111 114.57C587.781 115.547 590.043 116.882 591.898 118.574C593.786 120.267 595.235 122.253 596.244 124.531C597.253 126.777 597.758 129.17 597.758 131.709V161.396C597.758 163.936 597.253 166.344 596.244 168.623C595.235 170.869 593.786 172.839 591.898 174.531C590.043 176.224 587.781 177.559 585.111 178.535C582.442 179.512 579.464 180 576.176 180H561.137C557.849 180 554.87 179.512 552.201 178.535C549.532 177.559 547.253 176.224 545.365 174.531C543.51 172.839 542.077 170.869 541.068 168.623C540.059 166.344 539.555 163.936 539.555 161.396V131.709C539.555 129.17 540.059 126.777 541.068 124.531C542.077 122.253 543.51 120.267 545.365 118.574C547.253 116.882 549.532 115.547 552.201 114.57C554.87 113.594 557.849 113.105 561.137 113.105H576.176ZM665.043 152.705V157.881H693.266V152.705H681.791V122.676H693.266V117.5H665.043V122.676H676.566V152.705H665.043ZM683.988 113.105C687.276 113.105 690.255 113.594 692.924 114.57C695.593 115.547 697.855 116.882 699.711 118.574C701.599 120.267 703.048 122.253 704.057 124.531C705.066 126.777 705.57 129.17 705.57 131.709V161.396C705.57 163.936 705.066 166.344 704.057 168.623C703.048 170.869 701.599 172.839 699.711 174.531C697.855 176.224 695.593 177.559 692.924 178.535C690.255 179.512 687.276 180 683.988 180H668.949C665.661 180 662.683 179.512 660.014 178.535C657.344 177.559 655.066 176.224 653.178 174.531C651.322 172.839 649.89 170.869 648.881 168.623C647.872 166.344 647.367 163.936 647.367 161.396V131.709C647.367 129.17 647.872 126.777 648.881 124.531C649.89 122.253 651.322 120.267 653.178 118.574C655.066 116.882 657.344 115.547 660.014 114.57C662.683 113.594 665.661 113.105 668.949 113.105H683.988ZM791.801 113.105C795.089 113.105 798.067 113.594 800.736 114.57C803.406 115.547 805.668 116.882 807.523 118.574C809.411 120.267 810.86 122.253 811.869 124.531C812.878 126.777 813.383 129.17 813.383 131.709V161.396C813.383 163.936 812.878 166.344 811.869 168.623C810.86 170.869 809.411 172.839 807.523 174.531C805.668 176.224 803.406 177.559 800.736 178.535C798.067 179.512 795.089 180 791.801 180H776.762C773.474 180 770.495 179.512 767.826 178.535C765.157 177.559 762.878 176.224 760.99 174.531C759.135 172.839 757.702 170.869 756.693 168.623C755.684 166.344 755.18 163.936 755.18 161.396V131.709C755.18 129.17 755.684 126.777 756.693 124.531C757.702 122.253 759.135 120.267 760.99 118.574C762.878 116.882 765.157 115.547 767.826 114.57C770.495 113.594 773.474 113.105 776.762 113.105H791.801ZM801.859 125.41L801.176 121.309L798.1 118.184L793.07 117.5H779.984L775.004 118.184L771.879 121.309L771.293 125.41V150.02L771.879 154.219L775.102 157.295L779.984 157.881H793.07L798.1 157.295L801.176 154.219L801.859 150.02V125.41ZM796 152.217L792.777 152.705H780.277L777.104 152.217L776.371 149.287V125.898L776.859 123.213L780.277 122.676H792.777L796.195 123.213L796.684 126.094V149.482L796 152.217ZM908.695 125.312L908.012 121.211L904.887 118.086L899.906 117.5H887.699L878.91 118.721V157.881H884.086V123.213L887.895 122.578H899.613L902.982 123.115L903.471 125.996V157.881H908.695V125.312ZM899.613 113.105C902.901 113.105 905.88 113.594 908.549 114.57C911.218 115.547 913.48 116.882 915.336 118.574C917.224 120.267 918.673 122.253 919.682 124.531C920.691 126.777 921.195 129.17 921.195 131.709V161.396C921.195 163.936 920.691 166.344 919.682 168.623C918.673 170.869 917.224 172.839 915.336 174.531C913.48 176.224 911.218 177.559 908.549 178.535C905.88 179.512 902.901 180 899.613 180H884.574C881.286 180 878.308 179.512 875.639 178.535C872.969 177.559 870.691 176.224 868.803 174.531C866.947 172.839 865.515 170.869 864.506 168.623C863.497 166.344 862.992 163.936 862.992 161.396V131.709C862.992 129.17 863.497 126.777 864.506 124.531C865.515 122.253 866.947 120.267 868.803 118.574C870.691 116.882 872.969 115.547 875.639 114.57C878.308 113.594 881.286 113.105 884.574 113.105H899.613Z" fill="url(#paint0_linear)"/>
<defs>
<linearGradient id="paint0_linear" x1="448" y1="0" x2="448" y2="165" gradientUnits="userSpaceOnUse">
<stop offset="0.822917" stop-color="#61FFB3"/>
</linearGradient>
</defs>
</svg>
